HIERARCHY
ROOT Hips
{
	OFFSET 0.000000 0.000000 0.000000
	CHANNELS 6 Xposition Yposition Zposition Zrotation Yrotation Xrotation 
	JOINT LHipJoint
	{
		OFFSET 0.000000 0.000000 0.000000
		CHANNELS 3 Zrotation Yrotation Xrotation
		JOINT LeftUpLeg
		{
			OFFSET 1.363060 -1.794630 0.839290
			CHANNELS 3 Zrotation Yrotation Xrotation
			JOINT LeftLeg
			{
				OFFSET 2.448110 -6.726130 0.000000
				CHANNELS 3 Zrotation Yrotation Xrotation
				JOINT LeftFoot
				{
					OFFSET 2.562200 -7.039590 0.000000
					CHANNELS 3 Zrotation Yrotation Xrotation
					JOINT LeftToeBase
					{
						OFFSET 0.157640 -0.433110 2.322550
						CHANNELS 3 Zrotation Yrotation Xrotation
						End Site
						{
							OFFSET 0.000000 0.000000 0.000000
						}
					}
				}
			}
		}
	}
	JOINT RHipJoint
	{
		OFFSET 0.000000 0.000000 0.000000
		CHANNELS 3 Zrotation Yrotation Xrotation
		JOINT RightUpLeg
		{
			OFFSET -1.305520 -1.794630 0.839290
			CHANNELS 3 Zrotation Yrotation Xrotation
			JOINT RightLeg
			{
				OFFSET -2.542530 -6.985550 0.000000
				CHANNELS 3 Zrotation Yrotation Xrotation
				JOINT RightFoot
				{
					OFFSET -2.568260 -7.056230 0.000000
					CHANNELS 3 Zrotation Yrotation Xrotation
					JOINT RightToeBase
					{
						OFFSET -0.164730 -0.452590 2.363150
						CHANNELS 3 Zrotation Yrotation Xrotation
						End Site
						{
							OFFSET 0.000000 0.000000 0.000000
						}
					}
				}
			}
		}
	}
	JOINT LowerBack
	{
		OFFSET 0.000000 0.000000 0.000000
		CHANNELS 3 Zrotation Yrotation Xrotation
		JOINT Spine
		{
			OFFSET 0.028270 2.035590 -0.193380
			CHANNELS 3 Zrotation Yrotation Xrotation
			JOINT Spine1
			{
				OFFSET 0.056720 2.048850 -0.042750
				CHANNELS 3 Zrotation Yrotation Xrotation
				JOINT Neck
				{
					OFFSET 0.000000 0.000000 0.000000
					CHANNELS 3 Zrotation Yrotation Xrotation
					JOINT Neck1
					{
						OFFSET -0.054170 1.746240 0.172020
						CHANNELS 3 Zrotation Yrotation Xrotation
						JOINT Head
						{
							OFFSET 0.104070 1.761360 -0.123970
							CHANNELS 3 Zrotation Yrotation Xrotation
							End Site
							{
								OFFSET 0.000000 0.000000 0.000000
							}
						}
					}
				}
				JOINT LeftShoulder
				{
					OFFSET 0.000000 0.000000 0.000000
					CHANNELS 3 Zrotation Yrotation Xrotation
					JOINT LeftArm
					{
						OFFSET 3.362410 1.200890 -0.311210
						CHANNELS 3 Zrotation Yrotation Xrotation
						JOINT LeftForeArm
						{
							OFFSET 4.983000 -0.000000 -0.000000
							CHANNELS 3 Zrotation Yrotation Xrotation
							JOINT LeftHand
							{
								OFFSET 3.483560 -0.000000 -0.000000
								CHANNELS 3 Zrotation Yrotation Xrotation
								JOINT LeftFingerBase
								{
									OFFSET 0.000000 0.000000 0.000000
									CHANNELS 3 Zrotation Yrotation Xrotation
									JOINT LeftHandIndex1
									{
										OFFSET 0.715260 -0.000000 -0.000000
										CHANNELS 3 Zrotation Yrotation Xrotation
										End Site
										{
											OFFSET 0.000000 0.000000 0.000000
										}
									}
								}
								JOINT LThumb
								{
									OFFSET 0.000000 0.000000 0.000000
									CHANNELS 3 Zrotation Yrotation Xrotation
									End Site
									{
										OFFSET 0.000000 0.000000 0.000000
									}
								}
							}
						}
					}
				}
				JOINT RightShoulder
				{
					OFFSET 0.000000 0.000000 0.000000
					CHANNELS 3 Zrotation Yrotation Xrotation
					JOINT RightArm
					{
						OFFSET -3.136600 1.374050 -0.404650
						CHANNELS 3 Zrotation Yrotation Xrotation
						JOINT RightForeArm
						{
							OFFSET -5.241900 -0.000000 -0.000000
							CHANNELS 3 Zrotation Yrotation Xrotation
							JOINT RightHand
							{
								OFFSET -3.444170 -0.000000 -0.000000
								CHANNELS 3 Zrotation Yrotation Xrotation
								JOINT RightFingerBase
								{
									OFFSET 0.000000 0.000000 0.000000
									CHANNELS 3 Zrotation Yrotation Xrotation
									JOINT RightHandIndex1
									{
										OFFSET -0.622530 -0.000000 -0.000000
										CHANNELS 3 Zrotation Yrotation Xrotation
										End Site
										{
											OFFSET 0.000000 0.000000 0.000000
										}
									}
								}
								JOINT RThumb
								{
									OFFSET 0.000000 0.000000 0.000000
									CHANNELS 3 Zrotation Yrotation Xrotation
									End Site
									{
										OFFSET 0.000000 0.000000 0.000000
									}
								}
							}
						}
					}
				}
			}
		}
	}
}
MOTION
Frames: 4
Frame Time: 0.008333
-2.726358 16.806866 -0.744492 -152.410462 83.815544 -124.901695 -12.236657 0.091830 -4.708682 -11.114444 11.227780 -32.493982 -1.324718 2.862028 48.168523 1.246769 6.681890 -8.017448 -0.091300 -0.000000 -62.052800 6.538267 -0.142598 -1.557185 20.103202 -2.764214 -59.706806 4.142659 -3.127605 33.295248 -1.662451 -4.383452 -10.226539 -0.293100 0.000000 -56.290300 3.758449 -3.858059 9.268054 0.653174 -3.981502 -0.870432 -3.544962 -3.910565 0.608593 1.951558 -15.344878 -5.516589 -2.178950 -0.175246 0.250340 0.000000 0.000000 0.000000 10.818431 9.444717 -1.770881 -60.996353 -13.612052 6.301454 -178.666777 -60.964485 179.915605 8.641047 1.267187 0.058570 -0.304401 0.547088 -0.000000 0.000000 0.000000 0.000000 0.000000 0.000000 0.000000 -0.512078 -13.353939 -0.310408 69.284556 -34.745288 17.465845 0.081973 86.936703 -0.031070 -13.899976 6.252445 -0.799455 0.184086 -0.225050 -0.000000 0.000000 0.000000 0.000000 0.000000 0.000000 0.000000 
-2.516856 16.864371 -0.745463 -152.550444 83.725968 -124.790932 -12.344660 0.068323 -4.819392 -10.645322 11.685185 -32.447481 -1.236827 2.927175 48.462043 1.240555 6.812898 -6.531316 0.087201 -0.000000 -60.246100 6.385407 -0.246532 -1.283242 20.444532 -2.166162 -59.095641 4.417697 -2.684595 30.216623 -1.654009 -4.338967 -9.931781 -0.359000 -0.000000 -56.998600 3.953718 -3.922385 9.160301 0.716047 -4.054641 -0.898247 -3.497566 -3.984262 0.633130 1.948522 -15.551143 -5.672998 -2.144163 -0.170899 0.208178 0.000000 0.000000 0.000000 11.122787 9.588656 -1.758188 -60.949796 -12.426854 6.529332 -178.692107 -60.214063 179.915169 8.725086 1.230440 0.056293 -0.306238 0.546053 -0.000000 0.000000 0.000000 0.000000 0.000000 0.000000 0.000000 -0.698386 -13.465517 -0.330096 69.485967 -35.080994 16.854701 0.074254 87.678496 -0.030168 -13.237501 6.993511 -0.849969 0.175314 -0.238120 -0.000000 0.000000 0.000000 0.000000 0.000000 0.000000 0.000000 
-2.308367 16.911818 -0.746239 -152.977287 83.653478 -125.009659 -12.437215 0.042431 -4.944256 -10.237389 12.093986 -32.389398 -1.153988 2.999979 48.932684 1.300580 7.332165 -5.531289 0.223000 0.000000 -57.315601 6.258304 -0.304380 -1.040326 20.616341 -1.624999 -58.428431 4.640036 -2.251457 27.389345 -1.624521 -4.259122 -9.569214 -0.425300 0.000000 -57.581000 4.121349 -3.984455 9.098899 0.770842 -4.124517 -0.916883 -3.458587 -4.053260 0.652323 1.951244 -15.736936 -5.831833 -2.110038 -0.166443 0.164437 0.000000 0.000000 0.000000 11.386031 9.696095 -1.736746 -60.922502 -11.182936 6.810991 -178.724837 -59.520640 179.914659 8.827994 1.196633 0.054416 -0.308209 0.544254 -0.000000 0.000000 0.000000 0.000000 0.000000 0.000000 0.000000 -0.877654 -13.547428 -0.332353 69.786024 -35.323789 16.149305 0.066416 88.337114 -0.029409 -12.618550 7.707413 -0.891585 0.166830 -0.251118 -0.000000 0.000000 0.000000 0.000000 0.000000 0.000000 0.000000 
-2.100874 16.948280 -0.746778 -153.708981 83.601037 -125.580700 -12.514171 0.019018 -5.079194 -9.894530 12.449544 -32.320904 -1.076106 3.082760 49.599887 1.419318 8.216281 -5.032367 0.325500 -0.000000 -53.338800 6.162008 -0.317632 -0.833854 20.612304 -1.149270 -57.727570 4.802606 -1.848918 24.880272 -1.573678 -4.149013 -9.113864 -0.494100 0.000000 -58.079100 4.253078 -4.045785 9.080796 0.816055 -4.192953 -0.926689 -3.425406 -4.119539 0.666825 1.957884 -15.897404 -5.990359 -2.075860 -0.161876 0.120072 0.000000 0.000000 0.000000 11.617531 9.770520 -1.708325 -60.925735 -9.879310 7.144754 -178.765447 -58.891263 179.914253 8.932257 1.157542 0.052034 -0.309520 0.541974 -0.000000 0.000000 0.000000 0.000000 0.000000 0.000000 0.000000 -1.052560 -13.596567 -0.318513 70.178772 -35.469503 15.361573 0.058759 88.895562 -0.028754 -12.052212 8.342928 -0.920902 0.158953 -0.263165 -0.000000 0.000000 0.000000 0.000000 0.000000 0.000000 0.000000 
